<svg enable-background="new 0 0 512.001 512.001" viewBox="0 0 512.001 512.001" xmlns="http://www.w3.org/2000/svg"><path d="m472.084 255.497c0 119.062-96.519 215.58-215.58 215.58s-215.58-96.519-215.58-215.58 96.519-215.58 215.58-215.58 215.58 96.518 215.58 215.58z" fill="#febd4b"/><path d="m447.603 97.55c30.792 37.212 50.923 83.57 55.714 134.39 1.191 12.639-8.778 23.558-21.474 23.558h-225.339l159.336-159.338c8.945-8.944 23.699-8.357 31.763 1.39z" fill="#fe8332"/><path d="m415.835 414.828c9.003 9.003 8.274 23.791-1.541 31.899-42.91 35.447-97.953 56.73-157.968 56.687-136.595-.096-247.991-111.791-247.738-248.385.237-128.718 98.569-234.419 224.224-246.332 12.692-1.203 23.692 8.711 23.692 21.46v225.341z" fill="#fe5a3a"/><path d="m256.504 30.158v225.339h-247.917c0-128.975 98.488-234.948 224.36-246.813 12.639-1.191 23.557 8.779 23.557 21.474z" fill="#81bc82"/><path d="m511.871 231.123c-4.828-51.23-24.763-99.318-57.646-139.061-5.271-6.369-13.046-10.245-21.332-10.636-8.359-.4-16.53 2.771-22.441 8.681l-1.297 1.298c-39.635-36.92-90.494-57.971-144.563-59.882v-1.839c0-8.331-3.534-16.326-9.698-21.932-6.195-5.635-14.536-8.407-22.89-7.621-63.154 5.99-121.633 35.152-164.665 82.117-43.306 47.261-67.22 108.615-67.339 172.757v.435.047.047c.011 68.17 26.658 132.407 75.068 180.941 48.529 48.654 112.899 75.476 181.253 75.523h.179c59.495-.001 117.474-20.828 163.267-58.655 6.447-5.327 10.374-13.172 10.769-21.52.397-8.333-2.759-16.496-8.657-22.394l-1.291-1.29c36.934-39.632 57.973-90.427 59.881-144.567h1.836c8.344 0 16.353-3.54 21.971-9.713 5.607-6.161 8.376-14.449 7.595-22.736zm-247.28-183.42c49.752 1.897 96.553 21.268 133.122 55.143l-133.122 133.126zm144.878 393.178c-42.904 35.44-97.219 54.952-152.969 54.951-.054 0-.112 0-.167 0-64.032-.045-124.34-25.18-169.817-70.773-43.456-43.567-68.199-100.629-70.215-161.486h209.877c4.465 0 8.084-3.619 8.084-8.084s-3.62-8.084-8.084-8.084h-209.878c3.944-120.961 96.08-219.689 217.228-231.175 3.89-.375 7.611.87 10.485 3.484 2.844 2.586 4.41 6.129 4.41 9.972v225.746c-.008 1.021.179 2.051.568 3.035 0 .001.001.002.001.003.002.006.004.012.006.018 0 .001.001.003.001.004.003.008.005.014.009.022.001.002.001.004.002.006.001.004.003.009.005.014.001.003.002.006.004.01.002.003.002.008.004.011s.002.008.004.011.003.008.004.012c.002.004.004.01.006.015.001.004.003.009.005.013.001.002.002.005.003.009s.003.009.004.013c.001.002.002.005.003.009l.006.015c0 .002.001.003.001.005.003.006.006.014.009.022l.001.002c.003.006.005.014.009.02v.002c.42.971 1.018 1.832 1.745 2.549l152.632 152.624c.026.027.054.055.081.082.026.026.054.054.081.08l6.825 6.825c2.724 2.724 4.123 6.346 3.941 10.195-.18 3.865-1.927 7.353-4.914 9.823zm-.321-44.182-133.124-133.127h188.264c-1.891 49.827-21.246 96.557-55.14 133.127zm83.169-153.722c-2.599 2.854-6.155 4.427-10.014 4.427h-206.28l145.862-145.863c2.737-2.739 6.369-4.143 10.248-3.965 3.803.179 7.225 1.881 9.634 4.792 30.807 37.234 49.483 82.282 54.007 130.271.359 3.823-.867 7.493-3.457 10.338z"/></svg>