<?xml version="1.0" standalone="no"?>
<!DOCTYPE svg PUBLIC "-//W3C//DTD SVG 20010904//EN"
 "http://www.w3.org/TR/2001/REC-SVG-20010904/DTD/svg10.dtd">
<svg version="1.0" xmlns="http://www.w3.org/2000/svg"
 width="600.000000pt" height="300.000000pt" viewBox="0 0 600.000000 300.000000"
 preserveAspectRatio="xMidYMid meet">

<g transform="translate(0.000000,300.000000) scale(0.100000,-0.100000)"
fill="#000000" stroke="none">
<path d="M1895 2256 c-85 -21 -143 -53 -206 -113 -102 -97 -149 -204 -149
-337 0 -203 122 -370 320 -436 93 -32 229 -25 317 15 89 39 92 45 53 105 -18
27 -36 50 -41 50 -6 0 -29 -10 -52 -22 -58 -30 -177 -36 -246 -13 -64 21 -147
95 -181 161 -21 42 -25 62 -25 144 0 80 4 102 23 138 77 144 244 214 387 162
102 -36 98 -37 132 16 17 26 29 53 26 59 -6 16 -104 61 -163 74 -58 14 -132
12 -195 -3z"/>
<path d="M2630 2263 c-101 -17 -200 -72 -272 -152 -126 -139 -152 -335 -68
-507 76 -156 233 -254 409 -254 171 0 319 84 404 231 69 119 77 290 19 414
-37 79 -130 180 -200 218 -82 45 -202 65 -292 50z m222 -175 c115 -61 174
-170 166 -302 -8 -124 -75 -219 -192 -272 -51 -23 -67 -26 -140 -22 -96 5
-166 37 -223 103 -57 65 -77 118 -77 210 -1 96 23 157 87 223 103 106 249 129
379 60z"/>
<path d="M3553 2256 c-86 -21 -156 -62 -220 -129 -101 -105 -138 -204 -131
-346 6 -107 32 -178 96 -256 61 -76 133 -126 222 -155 98 -32 228 -26 318 15
88 39 91 45 52 105 -18 27 -36 50 -41 50 -6 0 -29 -10 -52 -22 -58 -30 -177
-36 -246 -13 -64 21 -147 95 -181 161 -21 42 -25 62 -25 144 0 80 4 102 23
138 77 144 244 214 387 162 102 -36 98 -37 132 16 17 26 29 53 26 59 -6 16
-104 61 -163 74 -59 14 -132 12 -197 -3z"/>
<path d="M4280 2263 c-101 -17 -200 -72 -272 -152 -126 -139 -152 -335 -68
-507 76 -156 233 -254 409 -254 171 0 319 84 404 231 69 119 77 290 19 414
-37 79 -130 180 -200 218 -82 45 -202 65 -292 50z m222 -175 c115 -61 174
-170 166 -302 -8 -124 -75 -219 -192 -272 -51 -23 -67 -26 -140 -22 -96 5
-166 37 -223 103 -57 65 -77 118 -77 210 -1 96 23 157 87 223 103 106 249 129
379 60z"/>
<path d="M5191 2257 c-20 -25 -371 -881 -366 -894 6 -17 121 -18 131 -1 5 7
38 85 75 173 l67 160 149 3 150 3 73 -176 72 -175 64 0 c34 0 65 4 68 9 6 9
-348 874 -367 899 -13 16 -102 16 -116 -1z m108 -321 c23 -54 41 -100 41 -102
0 -2 -40 -4 -90 -4 -49 0 -90 3 -90 7 0 19 86 211 92 205 3 -4 25 -51 47 -106z"/>
<path d="M1330 2216 c-107 -37 -138 -56 -294 -178 -16 -13 -63 -55 -105 -94
-109 -103 -245 -211 -302 -239 -71 -36 -153 -56 -239 -57 l-75 0 40 -15 c29
-11 66 -13 138 -10 l98 5 -39 -36 c-56 -53 -109 -138 -139 -223 -21 -58 -27
-96 -29 -174 -2 -116 11 -180 61 -281 33 -68 112 -170 123 -159 3 2 -2 13 -11
23 -20 22 -66 141 -75 196 -9 53 -9 259 0 311 13 76 58 216 88 273 40 78 41
79 73 88 l29 7 -22 -44 c-27 -52 -55 -130 -82 -224 -28 -100 -36 -371 -14
-473 16 -76 72 -212 87 -212 11 0 67 111 85 169 21 68 46 269 40 321 -3 25 -8
70 -11 100 -6 55 -37 186 -55 235 -9 25 4 75 20 75 11 0 46 -86 75 -186 22
-74 27 -111 28 -219 1 -71 -1 -153 -5 -182 -11 -70 -55 -191 -85 -231 -37 -49
-10 -38 37 16 90 101 138 220 149 365 l6 88 44 -61 c67 -92 142 -150 250 -194
67 -27 83 -18 24 13 -45 23 -127 106 -173 174 -47 71 -115 222 -133 297 -22
92 -39 227 -32 250 4 11 2 20 -3 20 -15 0 -44 -118 -50 -198 l-5 -73 -25 38
c-13 21 -41 55 -60 75 l-35 37 37 46 c21 25 64 63 96 85 32 22 62 44 65 50 15
24 23 5 29 -70 12 -128 21 -171 64 -300 61 -183 158 -331 285 -432 68 -53 77
-51 77 22 0 190 -113 436 -283 616 -56 59 -77 89 -77 108 0 14 3 26 6 26 3 0
32 -21 64 -46 184 -144 344 -454 324 -628 -7 -65 9 -72 21 -9 4 21 11 43 17
50 15 19 4 181 -18 254 -49 158 -160 292 -299 360 -45 21 -87 39 -93 39 -15 0
-15 22 0 72 20 67 140 150 287 197 l86 28 3 71 c3 83 6 81 -88 48z"/>
<path d="M795 2060 c-11 -5 -36 -9 -55 -9 -37 -1 -105 -32 -161 -73 -19 -14
-67 -44 -106 -69 -75 -45 -93 -66 -46 -54 15 3 68 8 117 9 61 2 102 8 123 19
18 10 48 17 68 17 23 0 53 11 88 34 28 19 66 37 83 41 36 7 82 49 65 59 -20
13 -106 36 -131 35 -14 0 -34 -4 -45 -9z"/>
<path d="M1500 1250 c0 -18 7 -20 75 -20 l75 0 0 -230 0 -230 25 0 25 0 0 230
0 230 70 0 c63 0 70 2 70 20 0 19 -7 20 -170 20 -163 0 -170 -1 -170 -20z"/>
<path d="M1860 1020 l0 -250 170 0 c163 0 170 1 170 20 0 18 -8 20 -142 22
l-143 3 -3 93 -3 92 101 0 c93 0 100 1 100 20 0 18 -8 20 -97 22 l-98 3 0 90
0 90 143 3 c134 2 142 4 142 22 0 19 -7 20 -170 20 l-170 0 0 -250z"/>
<path d="M2364 1259 c-17 -5 -51 -27 -76 -49 -134 -118 -110 -329 47 -413 53
-29 183 -31 233 -4 56 30 32 73 -25 44 -81 -42 -155 -28 -224 42 -73 72 -86
143 -43 229 46 92 141 139 226 113 63 -19 92 -19 96 0 7 38 -148 63 -234 38z"/>
<path d="M2640 1020 l0 -250 25 0 25 0 0 115 0 115 135 0 135 0 0 -115 0 -115
25 0 25 0 0 250 0 250 -25 0 c-24 0 -24 0 -27 -112 l-3 -113 -130 0 -130 0 -3
113 c-3 112 -3 112 -27 112 l-25 0 0 -250z"/>
<path d="M3110 1020 l0 -250 25 0 25 0 0 185 c0 102 3 185 8 185 4 -1 69 -84
145 -185 75 -102 144 -185 152 -185 13 0 15 35 15 250 l0 250 -25 0 -25 0 0
-185 c0 -102 -3 -185 -7 -184 -5 0 -69 83 -143 184 -84 115 -142 184 -152 185
-17 0 -18 -18 -18 -250z"/>
<path d="M3700 1257 c-49 -16 -133 -102 -148 -153 -36 -124 13 -249 123 -307
31 -17 57 -22 120 -22 63 0 89 5 120 22 157 84 181 299 46 414 -22 20 -58 41
-80 47 -47 15 -134 14 -181 -1z m175 -51 c60 -28 77 -46 106 -110 56 -127 -46
-280 -186 -280 -100 0 -191 84 -202 189 -7 56 31 142 78 177 70 52 130 59 204
24z"/>
<path d="M4110 1020 l0 -250 145 0 c138 0 145 1 145 20 0 18 -8 20 -117 22
l-118 3 -3 228 -2 227 -25 0 -25 0 0 -250z"/>
<path d="M4500 1257 c-49 -16 -133 -102 -148 -153 -36 -124 13 -249 123 -307
31 -17 57 -22 120 -22 63 0 89 5 120 22 157 84 181 299 46 414 -22 20 -58 41
-80 47 -47 15 -134 14 -181 -1z m175 -51 c60 -28 77 -46 106 -110 56 -127 -46
-280 -186 -280 -100 0 -191 84 -202 189 -7 56 31 142 78 177 70 52 130 59 204
24z"/>
<path d="M5077 1256 c-196 -70 -222 -346 -42 -452 89 -52 218 -42 295 23 29
24 30 28 30 109 l0 84 -80 0 c-73 0 -80 -2 -80 -19 0 -17 8 -20 53 -23 l52 -3
3 -51 c3 -47 0 -54 -25 -72 -86 -61 -190 -48 -262 34 -78 89 -73 203 12 281
76 70 160 80 240 27 41 -27 70 -28 75 -4 3 18 -52 57 -99 70 -47 14 -127 12
-172 -4z"/>
<path d="M5350 1263 c0 -3 32 -57 70 -118 l70 -111 0 -132 0 -132 25 0 25 0 0
125 0 126 75 118 c41 65 75 121 75 125 0 3 -13 6 -29 6 -25 0 -35 -11 -81 -85
-29 -47 -56 -85 -61 -85 -4 0 -31 38 -61 85 -46 73 -57 85 -80 85 -16 0 -28
-3 -28 -7z"/>
</g>
</svg>
