<?xml version="1.0" standalone="no"?>
<!DOCTYPE svg PUBLIC "-//W3C//DTD SVG 20010904//EN"
 "http://www.w3.org/TR/2001/REC-SVG-20010904/DTD/svg10.dtd">
<svg version="1.0" xmlns="http://www.w3.org/2000/svg"
 width="600.000000pt" height="300.000000pt" viewBox="0 0 600.000000 300.000000"
 preserveAspectRatio="xMidYMid meet">

<g transform="translate(0.000000,300.000000) scale(0.100000,-0.100000)"
fill="#000000" stroke="none">
<path d="M1912 2259 c-79 -13 -156 -54 -226 -119 -70 -66 -108 -129 -131 -215
-56 -218 46 -435 250 -531 124 -60 275 -59 397 2 26 13 50 28 53 34 7 11 -34
79 -60 100 -9 7 -29 3 -69 -16 -69 -31 -159 -35 -238 -9 -74 25 -168 119 -193
194 -27 82 -18 192 22 262 81 144 250 205 398 144 33 -14 65 -25 71 -25 16 0
73 90 67 105 -7 20 -116 65 -180 75 -66 11 -88 11 -161 -1z"/>
<path d="M2623 2260 c-131 -19 -267 -120 -328 -243 -118 -239 -27 -506 213
-624 75 -37 78 -38 191 -38 96 1 126 5 171 23 113 46 220 153 261 262 42 112
35 270 -18 374 -37 74 -133 168 -206 204 -34 17 -91 36 -127 41 -72 12 -81 12
-157 1z m212 -161 c110 -52 176 -149 183 -270 7 -111 -15 -167 -92 -245 -73
-72 -126 -94 -231 -94 -60 0 -82 5 -133 30 -69 35 -125 92 -155 159 -31 66
-30 187 1 256 25 55 91 128 137 152 92 49 203 53 290 12z"/>
<path d="M3572 2259 c-79 -13 -156 -54 -226 -119 -70 -66 -108 -129 -131 -215
-56 -218 46 -435 250 -531 124 -60 275 -59 397 2 26 13 50 28 53 34 7 11 -34
79 -60 100 -9 7 -29 3 -69 -16 -69 -31 -159 -35 -238 -9 -74 25 -168 119 -193
194 -27 82 -18 192 22 262 81 144 250 205 398 144 33 -14 65 -25 71 -25 16 0
73 90 67 105 -7 20 -116 65 -180 75 -66 11 -88 11 -161 -1z"/>
<path d="M4273 2260 c-131 -19 -267 -120 -328 -243 -118 -239 -27 -506 213
-624 75 -37 78 -38 191 -38 96 1 126 5 171 23 113 46 220 153 261 262 42 112
35 270 -18 374 -37 74 -133 168 -206 204 -34 17 -91 36 -127 41 -72 12 -81 12
-157 1z m212 -161 c110 -52 176 -149 183 -270 7 -111 -15 -167 -92 -245 -73
-72 -126 -94 -231 -94 -60 0 -82 5 -133 30 -69 35 -125 92 -155 159 -31 66
-30 187 1 256 25 55 91 128 137 152 92 49 203 53 290 12z"/>
<path d="M5186 2248 c-7 -13 -94 -216 -191 -451 -115 -277 -174 -432 -168
-438 6 -6 37 -9 69 -7 l59 3 71 170 71 170 150 3 150 3 68 -163 c37 -90 72
-169 77 -175 12 -15 124 -18 132 -4 5 8 -346 865 -367 899 -5 7 -29 12 -57 12
-41 0 -52 -4 -64 -22z m114 -312 c22 -55 40 -101 40 -103 0 -1 -40 -3 -90 -3
-49 0 -90 3 -90 8 0 21 85 211 92 204 4 -4 26 -52 48 -106z"/>
<path d="M1330 2216 c-107 -37 -138 -56 -294 -178 -16 -13 -63 -55 -105 -94
-173 -162 -266 -232 -344 -260 -63 -23 -187 -44 -232 -39 -39 5 -39 5 10 -11
36 -11 75 -14 139 -10 l88 5 -40 -37 c-57 -53 -115 -149 -143 -234 -33 -101
-33 -263 -1 -358 27 -78 67 -150 117 -208 41 -47 59 -51 26 -5 -11 15 -33 62
-48 103 -25 70 -27 87 -27 235 -1 165 4 194 61 365 25 73 74 148 105 159 15 6
28 8 28 6 0 -2 -13 -32 -29 -68 -39 -87 -80 -222 -91 -299 -14 -96 -12 -304 5
-382 15 -70 72 -206 86 -206 11 0 57 90 80 159 11 30 26 106 34 169 14 102 14
128 0 237 -8 67 -26 160 -39 205 -19 65 -22 89 -13 107 5 13 13 23 17 23 13 0
58 -113 80 -198 26 -104 36 -274 21 -368 -14 -95 -53 -207 -86 -249 -41 -54
-12 -41 40 18 87 98 145 252 142 377 -1 39 1 70 5 70 4 0 20 -19 35 -42 58
-93 152 -165 286 -221 49 -21 48 -3 -2 22 -69 36 -163 150 -226 274 -77 154
-111 284 -110 425 0 23 -2 42 -6 42 -14 0 -44 -138 -44 -202 0 -38 -2 -68 -5
-68 -3 0 -13 13 -22 28 -10 16 -35 48 -58 70 -22 23 -40 45 -40 48 0 18 72 93
139 143 l77 58 12 -116 c28 -261 140 -512 295 -658 55 -52 110 -87 121 -76 12
12 5 109 -14 196 -35 160 -137 341 -271 482 -49 52 -69 80 -69 99 0 14 3 26 6
26 14 0 126 -96 161 -138 141 -170 217 -336 230 -502 l6 -74 19 58 c36 109 12
267 -58 393 -69 124 -165 212 -286 260 -37 16 -68 34 -68 42 0 35 26 92 54
119 43 41 162 110 211 123 22 5 57 16 78 22 l39 13 1 68 c1 39 -2 70 -8 72 -5
2 -39 -7 -75 -20z"/>
<path d="M795 2060 c-11 -5 -36 -9 -55 -10 -39 -1 -102 -32 -206 -100 -38 -25
-85 -56 -104 -68 l-35 -22 120 3 c87 3 129 8 152 20 18 10 48 17 68 17 24 0
51 11 86 35 28 19 65 37 84 41 39 7 86 50 64 59 -104 37 -135 42 -174 25z"/>
<path d="M1500 1250 c0 -18 7 -20 75 -20 l75 0 0 -230 0 -230 25 0 25 0 0 230
0 230 70 0 c63 0 70 2 70 20 0 19 -7 20 -170 20 -163 0 -170 -1 -170 -20z"/>
<path d="M1860 1020 l0 -250 170 0 c163 0 170 1 170 20 0 18 -8 20 -142 22
l-143 3 -3 93 -3 92 101 0 c93 0 100 1 100 20 0 18 -8 20 -97 22 l-98 3 0 90
0 90 143 3 c134 2 142 4 142 22 0 19 -7 20 -170 20 l-170 0 0 -250z"/>
<path d="M2361 1257 c-48 -19 -108 -72 -133 -120 -17 -32 -23 -59 -23 -117 0
-64 4 -82 28 -123 33 -55 93 -102 151 -118 51 -14 143 -6 184 15 34 18 37 23
23 45 -8 12 -18 11 -62 -8 -83 -36 -154 -18 -222 58 -62 69 -71 139 -29 222
50 99 150 141 247 104 25 -9 52 -14 60 -11 24 9 17 32 -12 46 -39 18 -170 23
-212 7z"/>
<path d="M2640 1020 l0 -250 25 0 25 0 0 115 0 115 135 0 135 0 0 -115 0 -115
25 0 25 0 0 250 0 250 -25 0 c-24 0 -24 0 -27 -112 l-3 -113 -130 0 -130 0 -3
113 c-3 112 -3 112 -27 112 l-25 0 0 -250z"/>
<path d="M3110 1020 l0 -250 25 0 25 0 0 185 c0 102 3 185 8 185 4 -1 69 -84
145 -185 75 -102 144 -185 152 -185 13 0 15 35 15 250 l0 250 -25 0 -25 0 0
-185 c0 -102 -3 -185 -7 -185 -5 1 -70 84 -146 185 -75 102 -144 185 -152 185
-13 0 -15 -35 -15 -250z"/>
<path d="M3700 1257 c-54 -17 -133 -102 -149 -160 -45 -159 56 -310 218 -324
106 -10 201 39 251 127 21 37 25 58 25 120 -1 113 -46 184 -145 229 -50 23
-141 26 -200 8z m151 -38 c57 -20 100 -59 126 -116 31 -67 28 -121 -11 -187
-78 -133 -264 -133 -342 0 -39 66 -42 120 -11 187 45 99 144 147 238 116z"/>
<path d="M4110 1020 l0 -250 145 0 c138 0 145 1 145 20 0 18 -8 20 -117 22
l-118 3 -3 228 -2 227 -25 0 -25 0 0 -250z"/>
<path d="M4500 1257 c-54 -17 -133 -102 -149 -160 -45 -159 56 -310 218 -324
106 -10 201 39 251 127 21 37 25 58 25 120 -1 113 -46 184 -145 229 -50 23
-141 26 -200 8z m151 -38 c57 -20 100 -59 126 -116 31 -67 28 -121 -11 -187
-78 -133 -264 -133 -342 0 -39 66 -42 120 -11 187 45 99 144 147 238 116z"/>
<path d="M5077 1256 c-157 -57 -213 -249 -112 -387 48 -66 109 -94 205 -94 57
1 85 6 115 22 69 36 76 50 73 139 l-3 79 -77 3 c-72 3 -78 1 -78 -17 0 -17 8
-20 53 -23 l52 -3 3 -51 c3 -47 0 -54 -26 -73 -80 -56 -172 -49 -248 21 -92
85 -92 211 -1 295 76 70 164 80 243 27 39 -27 67 -28 72 -4 3 16 -39 46 -93
67 -41 16 -132 15 -178 -1z"/>
<path d="M5350 1264 c0 -3 32 -57 70 -118 l70 -112 0 -132 0 -132 25 0 25 0 0
125 0 125 75 120 c41 66 75 122 75 125 0 3 -13 5 -30 5 -20 0 -33 -7 -41 -22
-7 -13 -32 -54 -56 -92 l-44 -68 -57 91 c-49 79 -60 91 -84 91 -16 0 -28 -3
-28 -6z"/>
</g>
</svg>
